<svg width="24" height="24" viewBox="0 0 24 24" fill="none" xmlns="http://www.w3.org/2000/svg">
<path d="M12 1.9961C13.9466 1.99354 15.8178 2.74894 17.217 4.10226C18.6162 5.45557 19.4336 7.30048 19.496 9.2461L19.5 9.4961V13.5931L20.88 16.7491C20.963 16.9393 20.9974 17.1471 20.98 17.3539C20.9626 17.5607 20.894 17.7598 20.7804 17.9335C20.6668 18.1071 20.5117 18.2497 20.3292 18.3485C20.1467 18.4472 19.9425 18.499 19.735 18.4991L15 18.5021C15.001 19.2831 14.6974 20.0337 14.1538 20.5944C13.6101 21.1551 12.8692 21.4817 12.0886 21.5047C11.3079 21.5278 10.549 21.2455 9.97322 20.7178C9.39742 20.1902 9.05008 19.4588 9.00502 18.6791L9.00002 18.4991H4.27502C4.06773 18.4991 3.8637 18.4476 3.68129 18.3491C3.49888 18.2507 3.34381 18.1084 3.23005 17.9351C3.11629 17.7619 3.0474 17.563 3.02959 17.3565C3.01178 17.15 3.0456 16.9423 3.12802 16.7521L4.50002 13.5941V9.4961C4.50002 5.3411 7.85202 1.9961 12 1.9961ZM13.5 18.5001L10.5 18.5021C10.4999 18.8874 10.6482 19.258 10.9139 19.5369C11.1797 19.8159 11.5426 19.982 11.9274 20.0006C12.3123 20.0192 12.6896 19.8891 12.981 19.6371C13.2725 19.3851 13.4558 19.0306 13.493 18.6471L13.5 18.5001ZM12 3.4961C8.68002 3.4961 6.00002 6.1701 6.00002 9.4961V13.9061L4.65602 17.0001H19.353L18 13.9071V9.5091L17.996 9.2841C17.9436 7.72969 17.2886 6.25661 16.1696 5.17643C15.0506 4.09625 13.5553 3.49366 12 3.4961ZM21 8.2501H23C23.19 8.25016 23.373 8.32234 23.5118 8.45207C23.6507 8.5818 23.7351 8.7594 23.748 8.94898C23.761 9.13856 23.7015 9.32599 23.5816 9.4734C23.4617 9.62081 23.2903 9.7172 23.102 9.7431L23 9.7501H21C20.81 9.75004 20.6271 9.67786 20.4882 9.54813C20.3494 9.4184 20.2649 9.2408 20.252 9.05122C20.239 8.86164 20.2985 8.67421 20.4184 8.5268C20.5384 8.37939 20.7098 8.283 20.898 8.2571L21 8.2501ZM1.00002 8.2501H3.00002C3.19004 8.25016 3.37296 8.32234 3.51181 8.45207C3.65066 8.5818 3.73509 8.7594 3.74804 8.94898C3.76099 9.13856 3.7015 9.32599 3.58158 9.4734C3.46167 9.62081 3.29027 9.7172 3.10202 9.7431L3.00002 9.7501H1.00002C0.809992 9.75004 0.627075 9.67786 0.488224 9.54813C0.349373 9.4184 0.264942 9.2408 0.25199 9.05122C0.239038 8.86164 0.298531 8.67421 0.418448 8.5268C0.538365 8.37939 0.709765 8.283 0.898015 8.2571L1.00002 8.2501ZM22.6 2.5501C22.7079 2.69384 22.7606 2.87154 22.7485 3.05086C22.7364 3.23017 22.6603 3.39917 22.534 3.5271L22.45 3.6001L20.45 5.1001C20.2986 5.21421 20.1096 5.26674 19.9211 5.24714C19.7325 5.22753 19.5583 5.13724 19.4336 4.99443C19.309 4.85162 19.243 4.66689 19.249 4.4774C19.255 4.28791 19.3325 4.10773 19.466 3.9731L19.55 3.9001L21.55 2.4001C21.7091 2.28075 21.9092 2.22951 22.1061 2.25764C22.303 2.28577 22.4807 2.39097 22.6 2.5501ZM2.45002 2.4001L4.45002 3.9001C4.52881 3.9592 4.59519 4.03323 4.64537 4.11798C4.69555 4.20273 4.72855 4.29653 4.74248 4.39403C4.75641 4.49154 4.75099 4.59083 4.72655 4.68624C4.70211 4.78165 4.65911 4.87131 4.60002 4.9501C4.54092 5.02889 4.46688 5.09528 4.38214 5.14546C4.29739 5.19564 4.20358 5.22863 4.10608 5.24256C4.00858 5.25649 3.90929 5.25108 3.81388 5.22664C3.71847 5.20219 3.62881 5.15919 3.55002 5.1001L1.55002 3.6001C1.47122 3.54101 1.40484 3.46697 1.35466 3.38222C1.30448 3.29747 1.27148 3.20367 1.25755 3.10617C1.24362 3.00866 1.24904 2.90937 1.27348 2.81396C1.29792 2.71855 1.34092 2.62889 1.40002 2.5501C1.45911 2.47131 1.53315 2.40492 1.6179 2.35474C1.70264 2.30456 1.79645 2.27157 1.89395 2.25764C1.99145 2.24371 2.09074 2.24912 2.18615 2.27356C2.28156 2.29801 2.37122 2.34101 2.45002 2.4001Z" fill="black" fill-opacity="0.6"/>
</svg>
